<svg xmlns="http://www.w3.org/2000/svg" xmlns:xlink="http://www.w3.org/1999/xlink" width="900" zoomAndPan="magnify" viewBox="0 0 675 675.000002" height="900" preserveAspectRatio="xMidYMid meet" version="1.0"><defs><clipPath id="050625470b"><path d="M 0.5 0 L 674.5 0 L 674.5 674 L 0.5 674 Z M 0.5 0 " clip-rule="nonzero"/></clipPath><clipPath id="0728d7226b"><path d="M 123.660156 63.285156 L 551.339844 63.285156 L 551.339844 606 L 123.660156 606 Z M 123.660156 63.285156 " clip-rule="nonzero"/></clipPath><clipPath id="f8edfc65f7"><path d="M 551.339844 93.242188 L 551.339844 503.777344 C 551.339844 521.75 540.066406 537.792969 523.15625 543.878906 L 365.683594 600.570312 C 347.46875 607.128906 327.53125 607.128906 309.316406 600.570312 L 151.84375 543.878906 C 134.933594 537.792969 123.660156 521.75 123.660156 503.777344 L 123.660156 93.242188 C 123.660156 85.296875 126.816406 77.679688 132.433594 72.058594 C 138.050781 66.441406 145.671875 63.285156 153.617188 63.285156 L 521.382812 63.285156 C 529.328125 63.285156 536.949219 66.441406 542.566406 72.058594 C 548.183594 77.679688 551.339844 85.296875 551.339844 93.242188 Z M 551.339844 93.242188 " clip-rule="nonzero"/></clipPath><clipPath id="e6a4a850d1"><path d="M 298.785156 403.789062 L 376.214844 403.789062 L 376.214844 521 L 298.785156 521 Z M 298.785156 403.789062 " clip-rule="nonzero"/></clipPath><clipPath id="087b583d13"><path d="M 316.757812 403.789062 L 358.242188 403.789062 C 363.007812 403.789062 367.582031 405.683594 370.953125 409.050781 C 374.324219 412.421875 376.214844 416.996094 376.214844 421.761719 L 376.214844 502.945312 C 376.214844 507.710938 374.324219 512.285156 370.953125 515.65625 C 367.582031 519.023438 363.007812 520.917969 358.242188 520.917969 L 316.757812 520.917969 C 311.992188 520.917969 307.417969 519.023438 304.046875 515.65625 C 300.675781 512.285156 298.785156 507.710938 298.785156 502.945312 L 298.785156 421.761719 C 298.785156 416.996094 300.675781 412.421875 304.046875 409.050781 C 307.417969 405.683594 311.992188 403.789062 316.757812 403.789062 Z M 316.757812 403.789062 " clip-rule="nonzero"/></clipPath><clipPath id="73c465fc4d"><path d="M 174.195312 126.546875 L 499.964844 126.546875 L 499.964844 452.316406 L 174.195312 452.316406 Z M 174.195312 126.546875 " clip-rule="nonzero"/></clipPath><clipPath id="b83adc633b"><path d="M 298.613281 178.253906 L 516.59375 178.253906 L 516.59375 388.832031 L 298.613281 388.832031 Z M 298.613281 178.253906 " clip-rule="nonzero"/></clipPath><clipPath id="49ed66a9a6"><path d="M 298.777344 283.542969 L 516.59375 388.832031 L 516.59375 178.253906 Z M 298.777344 283.542969 " clip-rule="nonzero"/></clipPath></defs><g clip-path="url(#050625470b)"><path fill="#ffffff" d="M 0.5 0 L 674.5 0 L 674.5 674 L 0.5 674 Z M 0.5 0 " fill-opacity="1" fill-rule="nonzero"/><path fill="#ffffff" d="M 0.5 0 L 674.5 0 L 674.5 674 L 0.5 674 Z M 0.5 0 " fill-opacity="1" fill-rule="nonzero"/></g><g clip-path="url(#0728d7226b)"><g clip-path="url(#f8edfc65f7)"><path fill="#00bf63" d="M 123.660156 63.285156 L 551.339844 63.285156 L 551.339844 611.25 L 123.660156 611.25 Z M 123.660156 63.285156 " fill-opacity="1" fill-rule="nonzero"/></g></g><g clip-path="url(#e6a4a850d1)"><g clip-path="url(#087b583d13)"><path fill="#ffffff" d="M 298.785156 403.789062 L 376.214844 403.789062 L 376.214844 520.84375 L 298.785156 520.84375 Z M 298.785156 403.789062 " fill-opacity="1" fill-rule="nonzero"/></g></g><g clip-path="url(#73c465fc4d)"><path fill="#ffffff" d="M 337.140625 452.433594 C 247.292969 452.433594 174.195312 379.335938 174.195312 289.492188 C 174.195312 199.644531 247.292969 126.546875 337.140625 126.546875 C 426.984375 126.546875 500.082031 199.644531 500.082031 289.492188 C 500.082031 379.335938 426.984375 452.433594 337.140625 452.433594 Z M 337.140625 196.089844 C 285.636719 196.089844 243.738281 237.988281 243.738281 289.492188 C 243.738281 340.992188 285.636719 382.894531 337.140625 382.894531 C 388.640625 382.894531 430.542969 340.992188 430.542969 289.492188 C 430.542969 237.988281 388.640625 196.089844 337.140625 196.089844 Z M 337.140625 196.089844 " fill-opacity="1" fill-rule="nonzero"/></g><g clip-path="url(#b83adc633b)"><g clip-path="url(#49ed66a9a6)"><path fill="#00bf63" d="M 516.59375 178.253906 L 516.59375 388.832031 L 298.613281 388.832031 L 298.613281 178.253906 Z M 516.59375 178.253906 " fill-opacity="1" fill-rule="nonzero"/></g></g></svg>