<svg xmlns="http://www.w3.org/2000/svg" xmlns:xlink="http://www.w3.org/1999/xlink" width="900" zoomAndPan="magnify" viewBox="0 0 675 675.000002" height="900" preserveAspectRatio="xMidYMid meet" version="1.0"><defs><clipPath id="da26779965"><path d="M 0.5 0 L 674.5 0 L 674.5 674 L 0.5 674 Z M 0.5 0 " clip-rule="nonzero"/></clipPath><clipPath id="b366a5fc52"><path d="M 116 91 L 503 91 L 503 535 L 116 535 Z M 116 91 " clip-rule="nonzero"/></clipPath><clipPath id="81a58d4de9"><path d="M 328.074219 0 L 650.308594 303.40625 L 346.90625 625.640625 L 24.671875 322.238281 Z M 328.074219 0 " clip-rule="nonzero"/></clipPath><clipPath id="14c65dbc32"><path d="M 328.074219 0 L 650.308594 303.40625 L 346.90625 625.640625 L 24.671875 322.238281 Z M 328.074219 0 " clip-rule="nonzero"/></clipPath><clipPath id="f51812dedd"><path d="M 278.988281 464.941406 L 384.03125 464.941406 L 384.03125 624 L 278.988281 624 Z M 278.988281 464.941406 " clip-rule="nonzero"/></clipPath><clipPath id="e8debc7a38"><path d="M 296.960938 464.941406 L 366.058594 464.941406 C 375.984375 464.941406 384.03125 472.988281 384.03125 482.914062 L 384.03125 605.867188 C 384.03125 615.792969 375.984375 623.839844 366.058594 623.839844 L 296.960938 623.839844 C 287.035156 623.839844 278.988281 615.792969 278.988281 605.867188 L 278.988281 482.914062 C 278.988281 472.988281 287.035156 464.941406 296.960938 464.941406 Z M 296.960938 464.941406 " clip-rule="nonzero"/></clipPath></defs><g clip-path="url(#da26779965)"><path fill="#ffffff" d="M 0.5 0 L 674.5 0 L 674.5 674 L 0.5 674 Z M 0.5 0 " fill-opacity="1" fill-rule="nonzero"/><path fill="#00bf63" d="M 0.5 0 L 674.5 0 L 674.5 674 L 0.5 674 Z M 0.5 0 " fill-opacity="1" fill-rule="nonzero"/></g><g clip-path="url(#b366a5fc52)"><g clip-path="url(#81a58d4de9)"><g clip-path="url(#14c65dbc32)"><path fill="#ffffff" d="M 428.257812 390.515625 L 424.367188 394.648438 C 379.292969 442.519531 303.6875 444.792969 255.828125 399.730469 C 207.996094 354.695312 205.695312 279.136719 250.695312 231.269531 C 295.773438 183.46875 371.332031 181.21875 419.164062 226.257812 L 423.296875 230.148438 L 493.34375 155.753906 L 489.210938 151.863281 C 400.410156 68.25 260.046875 72.402344 176.21875 161.285156 C 92.679688 250.15625 96.976562 390.511719 185.78125 474.125 C 274.671875 557.824219 415.078125 553.597656 498.773438 464.707031 L 502.664062 460.574219 L 428.257812 390.515625 " fill-opacity="1" fill-rule="nonzero"/></g></g></g><g clip-path="url(#f51812dedd)"><g clip-path="url(#e8debc7a38)"><path fill="#ffffff" d="M 278.988281 464.941406 L 384.03125 464.941406 L 384.03125 623.738281 L 278.988281 623.738281 Z M 278.988281 464.941406 " fill-opacity="1" fill-rule="nonzero"/></g></g></svg>